<?xml version="1.0" encoding="utf-8"?>
<!-- Generator: Adobe Illustrator 25.0.0, SVG Export Plug-In . SVG Version: 6.00 Build 0)  -->
<svg version="1.1" id="katman_1" xmlns="http://www.w3.org/2000/svg" xmlns:xlink="http://www.w3.org/1999/xlink" x="0px" y="0px"
	 viewBox="0 0 560 400" style="enable-background:new 0 0 560 400;" xml:space="preserve">
<style type="text/css">
	.st0{fill:#EA3031;}
</style>
<g transform="matrix(.954669 0 0 .954669 152.629 98.7909)">
	<path d="M-63,206.2c-1.2-0.8-3.5-1.1-5.1-0.6c-3.4,1.1-4.9-2.8-2.8-6.8c1.2-2.3,8.6-5.4,26.7-11.1c13.9-4.5,25.9-8.2,26.7-8.5
		c0.9-0.2,1.5-3.4,1.2-7.1c-0.2-3.7,0.8-10.2,2-14.5c3.1-9.6,18.8-48.9,25.1-62.9l4.8-10.5l-4.3,2.9c-7.2,5.1-21.9,6-21.9,1.2
		c0-1.5,15.1-14,31.8-26.1c7.7-5.6,14.5-6.5,14.5-1.9c0,1.1,1.4,3.7,3.2,6c1.7,2.2,2.8,4.6,2.3,5.4c-0.6,0.8,0.5,1.9,2.2,2.5
		c4.2,1.4,4,2.5-3.1,14.2c-3.4,5.7-9.3,16.5-13.1,24.2c-7.1,14.5-28.4,61.7-28.1,62.1c0.2,0.2,6.2-1.1,13.4-2.8s14.6-3.4,16.7-3.7
		c2.9-0.8,3.4-1.9,3.4-7.9c0-3.9-0.9-8-2.2-9.1c-8.3-8.3,21.3-70,43.6-91c4.3-4,5.2-4.3,8-2.5c2.8,1.7,3.7,1.5,6.6-1.1
		c18.2-16.7,42.6-4.8,42.6,20.8v7.9l4-3.2c2.2-1.9,5.9-5.4,8-8c16.8-19.1,33-30.4,47.2-32.4c5.1-0.8,8.5-0.3,13.9,2
		c3.9,1.9,7.1,4,7.1,4.8c0,2.2,6.3,2.2,11.7,0.2c2.3-0.9,9.1-3.1,15.1-4.8c6-1.7,15.9-4.5,21.7-6.2c10.3-2.9,21.1-5.9,53.2-14.3
		c19.7-5.2,28.8-5.2,24.5,0.2c-1.4,1.4-1.2,2.6,0,4.2c2.3,2.8,0.5,4.2-8.3,6.3c-4.5,1.2-6.2,2.5-6.2,4.6c0,2.9-2.8,4-37.6,13.4
		l-13,3.5l-11.4,30.1c-6.2,16.5-14.8,41.2-19.1,54.6c-4.3,13.6-9.1,25.9-10.6,27.6c-2.8,2.8-2.8,2.8-3.9-0.3c-0.5-1.9-0.5-5.4,0-8
		c0.8-3.4,0.3-5.6-1.5-7.6c-1.4-1.5-2.2-3.5-1.7-4.5c0.6-0.8,0.3-2-0.6-2.5c-0.9-0.6-1.2-3.2-0.6-6.5c1.9-10.2,12.6-41.2,20.5-59.7
		c4.3-10,7.7-18.5,7.4-18.8c-0.3-0.3-7.6,1.5-16,4.2l-15.4,4.8l-1.1,11.6c-2.8,30.2-25.3,74.9-44.6,88.3c-3.5,2.5-9.4,6.6-13,9.3
		c-11.9,8.8-23.6,7.2-28.8-3.9c-1.4-2.9-4.2-7.1-6.2-9.3c-4.6-4.9-7.1-13.6-7.1-24.8c0-6.5-0.5-8.5-1.5-6.8
		c-0.8,1.2-1.5,4.8-1.5,7.9c0,3.4-1.7,8.2-4.6,12.6l-4.6,7.2h5.6c6.9,0,5.4,2.5-2.5,3.9c-4.6,0.8-8.3,3.2-16.5,11.4
		c-5.9,5.7-14.3,12.2-19,14.5c-14.3,7.1-28.1,4.6-34.8-6.2c-1.5-2.3-2.9-4.5-3.1-4.8c-0.3-0.5-34.8,8-43,10.5
		c-2.5,0.9-11.6,3.7-20.2,6.2c-8.6,2.6-18.2,6-21.6,7.7C-55,208.1-59.5,208.5-63,206.2L-63,206.2z M64.9,176.8l3.9-3.1l-6.9,1.1
		c-8,1.1-8.3,1.4-6.9,3.5C56.5,180.9,60.8,180.3,64.9,176.8z M149.4,178.6c1.5-0.9,0.9-1.5-2.3-2.2c-2.3-0.5-5.7-1.4-7.4-1.9
		c-2.5-0.9-2.5-0.5,0.8,2.2C144.6,180.3,146.3,180.6,149.4,178.6z M86.8,154.9c4.6-6.3,10.3-16,12.8-21.7c5.2-12.2,8.6-11.7,4,0.6
		c-1.7,4.6-2.9,8.5-2.8,8.8c1.1,0.9,14.8-28.8,17.9-38.7c8.2-26.5,0.8-50.3-14.6-46.6C98.5,58.7,77.9,79.6,73,89
		c-4,7.6-2.6,6.3,7.4-6.8c4.9-6.5,10-10,11.7-8.2c0.5,0.3-3.1,5.7-7.7,11.9c-17,22.5-30.1,51-32.7,70.8c-1.1,7.9-0.9,8.3,1.9,7.2
		c1.5-0.6,7.4-1.5,12.8-2c8.8-0.9,9.9-0.6,8.9,1.5c-0.6,1.7-0.2,2.6,1.1,2.6C77.4,166.1,82,161,86.8,154.9L86.8,154.9z M158.7,155.9
		c4.8-3.4,15.3-19.1,21.4-32.4c2.8-6.3,5.9-11.4,6.6-11.4c2.9,0,1.4,7.2-3.9,18.2c-2.9,6.2-5.1,11.1-4.8,11.1s2.9-3.7,5.9-8
		c10.3-16,17.1-33.9,19.1-51l1.1-8.8h-7.2c-6.2,0-7.2-0.5-6.8-2.6c0.3-1.5,2.6-3.4,5.4-4.2c6.2-1.9,7.4-4.8,4.3-9.6
		c-4.6-7.2-16.7-3.5-28.5,8.6c-8.9,9.3-19.9,27-21.7,35.2c-0.6,3.1-2.9,11.6-5.1,18.7c-2.3,7.1-4,16.3-4,20.8
		C140.5,155.3,149.1,162.7,158.7,155.9L158.7,155.9z"/>
	<g>
		<path class="st0" d="M105.8,265.6c-6.8-1.1-14.8-2.8-17.7-3.9c-2.9-0.9-9.1-2.3-13.4-3.1c-15.9-2.6-26.7-9.4-46.7-29.1
			c-10.2-10-18.5-19-18.5-19.9s2.9-2.5,6.6-3.4c3.5-0.9,7.7-2,9.3-2.5c1.7-0.6,5.6,2,11.6,7.6c26.8,25.1,63.7,37.9,96.4,33.5
			c22.2-2.9,41.3-10.3,63.1-24.2c3.2-2,4.6-2.3,6-0.9c2.6,2.6,0.6,4.6-12.3,13.1c-6.5,4.3-10.3,7.2-8.6,6.6c1.7-0.6,5.2-1.9,7.7-2.6
			c4.6-1.7,20.8-13.1,20.8-15c0.2-0.5,1.9-2.9,3.9-5.6l3.7-4.5l1.5,3.7c1.4,3.7,1.7,3.5,13.9-8.8c20.8-21.3,32.7-46.1,37.8-79.6
			c2.6-16.2,16.3-55,19.4-55c2.2,0,5.2,25.7,5.1,43.9c0,14.3-0.8,21.3-3.4,30.8c-8,28.2-24.5,54.7-47.3,76.3
			c-16.2,15.1-29.4,23.4-53.8,33.9C168.2,266.6,133.5,270,105.8,265.6z"/>
		<path class="st0" d="M227.3,182c-2.8-0.9-2.5-6.6,0.2-6.6c2.5,0,4.6,4.6,2.9,6.2C229.7,182.2,228.2,182.3,227.3,182z"/>
		<path class="st0" d="M227.6,167.8c-0.5-1.9-0.5-5.4,0-8c0.8-3.4,0.3-5.6-1.5-7.6c-1.4-1.5-2.2-3.5-1.7-4.5c0.6-0.8,0.3-2-0.6-2.5
			c-0.9-0.6-1.2-3.2-0.6-6.5c1.9-10.2,12.6-41.2,20.5-59.7c4.3-10,7.7-18.5,7.4-18.8s-10.5,2.5-22.8,6.3c-24.5,7.6-39,9.3-38.1,4.3
			c0.3-1.5,2.5-3.4,5.1-4.3c5.2-1.9,10.8-6.9,10.8-10c0-2,11.3-6.3,32.4-12.5c29.4-8.5,33.5-9.6,74.8-20.5
			c19.7-5.2,28.8-5.2,24.5,0.2c-1.4,1.4-1.2,2.6,0,4.2c2.3,2.8,0.5,4.2-8.3,6.3c-4.5,1.2-6.2,2.5-6.2,4.6c0,2.9-2.8,4-37.6,13.4
			l-13,3.5l-11.4,30.1c-6.2,16.5-14.8,41.2-19.1,54.6c-4.3,13.6-9.1,25.9-10.6,27.6C228.7,170.9,228.7,170.9,227.6,167.8
			L227.6,167.8z"/>
		<path class="st0" d="M179.8,73.6c-0.5-0.9,0.2-1.9,1.4-2.3c1.4-0.5,3.4-1.1,4.6-1.4c1.4-0.5,1.9,0.3,1.4,2.3
			C186.3,75.3,181.5,76.2,179.8,73.6L179.8,73.6z"/>
		<path class="st0" d="M-21.9,64.1c2.8-15.4,16-42.2,28.1-57.4c27-33.8,65.7-56.1,105.8-61.2c14.3-1.9,49.2-0.9,62.4,1.5
			c23.3,4.5,53.2,17,53.2,22.2c0,1.4,4.5,6.5,10,11.3c10,8.6,13.4,12,25,25.7l6.2,7.2l-5.1,2.2c-2.9,1.2-9.3,2.9-14,4l-8.9,2
			l-8.8-9.1c-16.5-17.1-41.2-32.4-63.7-39.3c-9.7-2.9-15-3.5-32.4-3.7c-17.7,0-22.5,0.6-32.4,3.7C89-22.1,72.8-14.1,66-8.1
			c-5.2,4.6-8.3,6-6.5,3.1c2.2-3.5-2.8-1.1-11.6,5.6C37.5,8.4,22.1,26,16.1,36.8c-2.3,4-7.2,9.3-11.1,12c-3.9,2.6-9.4,6.8-12.2,9.1
			C-15.4,64.7-21.1,69-22,69C-22.5,69-22.5,66.7-21.9,64.1L-21.9,64.1z"/>
	</g>
</g>
</svg>
